<?xml version="1.0" standalone="no"?>
<!DOCTYPE svg PUBLIC "-//W3C//DTD SVG 20010904//EN"
 "http://www.w3.org/TR/2001/REC-SVG-20010904/DTD/svg10.dtd">
<svg version="1.0" xmlns="http://www.w3.org/2000/svg"
 width="294.000000pt" height="51.000000pt" viewBox="0 0 294.000000 51.000000"
 preserveAspectRatio="xMidYMid meet">

<g transform="translate(0.000000,51.000000) scale(0.100000,-0.100000)"
fill="#000000" stroke="none">
<path d="M16 488 c-22 -30 -23 -443 -2 -470 12 -17 94 -18 1470 -18 l1456 0 0
255 0 255 -1454 0 -1455 0 -15 -22z m2122 -133 c-4 -60 -3 -63 13 -49 10 9 36
18 58 21 81 11 115 -44 109 -175 -3 -61 -5 -67 -25 -70 -22 -3 -23 -1 -23 75
0 95 -15 123 -64 123 -51 0 -64 -23 -68 -115 -3 -74 -5 -80 -25 -83 l-23 -3 0
170 0 171 26 0 c26 0 26 -1 22 -65z m562 -37 l0 -102 58 57 c36 36 66 57 80
57 22 0 20 -4 -19 -50 l-42 -50 46 -69 c25 -38 43 -72 40 -75 -19 -18 -46 -1
-79 49 -20 30 -40 55 -44 55 -16 0 -39 -38 -42 -70 -2 -27 -7 -35 -23 -35 -19
0 -20 8 -23 168 l-2 167 25 0 25 0 0 -102z m-2377 71 c22 -10 24 -15 15 -34
-9 -21 -12 -22 -37 -9 -34 18 -95 18 -111 -1 -18 -22 -3 -51 33 -65 114 -42
127 -54 127 -107 0 -85 -115 -120 -207 -63 -35 21 -38 27 -24 48 7 11 16 10
47 -7 62 -33 134 -23 134 19 0 23 -32 47 -81 60 -77 21 -109 74 -78 131 24 45
114 59 182 28z m1030 0 c70 -32 75 -142 9 -185 -14 -9 -54 -19 -88 -22 l-63
-5 -3 -46 c-3 -38 -6 -46 -23 -46 -19 0 -20 8 -23 150 -1 82 0 156 3 163 4 12
21 14 83 9 42 -3 90 -11 105 -18z m-776 -79 c21 -13 35 -31 42 -57 18 -64 20
-63 -84 -63 -52 0 -95 -3 -95 -8 0 -18 31 -50 55 -56 14 -4 40 0 59 8 29 12
37 12 46 1 15 -18 -20 -42 -75 -50 -32 -5 -47 -2 -75 17 -80 55 -81 151 -1
205 42 28 86 29 128 3z m121 -32 c11 -29 25 -70 31 -90 7 -21 16 -38 19 -38 4
0 21 39 38 88 25 69 36 88 53 90 11 2 21 -1 21 -6 0 -6 -20 -61 -44 -123 -39
-101 -46 -114 -67 -114 -21 0 -29 14 -71 120 -27 66 -48 121 -48 122 0 2 11 3
24 3 20 0 28 -9 44 -52z m357 27 c17 -16 25 -35 25 -58 0 -19 3 -62 6 -95 6
-53 4 -62 -11 -68 -11 -5 -22 -2 -29 7 -9 13 -15 13 -36 2 -42 -21 -79 -16
-112 17 -24 25 -29 36 -23 58 11 44 30 56 100 60 36 2 65 7 65 11 0 4 -7 17
-16 29 -18 26 -41 28 -89 8 -19 -8 -35 -13 -35 -11 0 2 -3 10 -6 19 -8 20 46
45 99 46 27 0 45 -7 62 -25z m445 4 l0 -20 26 20 c36 28 64 27 64 -2 0 -17 -8
-25 -32 -32 -43 -13 -58 -45 -58 -127 0 -61 -2 -68 -20 -68 -19 0 -20 7 -20
125 0 118 1 125 20 125 14 0 20 -7 20 -21z m277 -3 c26 -23 28 -29 31 -120 4
-85 2 -97 -14 -103 -11 -4 -21 -1 -27 9 -9 13 -13 13 -39 0 -60 -29 -128 7
-128 69 0 42 41 69 106 69 47 0 54 3 54 20 0 37 -54 51 -102 26 -25 -13 -29
-13 -38 3 -8 16 -4 22 23 35 48 23 101 20 134 -8z m220 13 c24 -8 30 -15 26
-30 -4 -14 -10 -18 -22 -13 -9 4 -32 8 -51 8 -28 1 -35 -3 -35 -19 0 -14 12
-24 43 -35 53 -20 75 -41 75 -74 0 -57 -67 -87 -138 -64 -42 14 -50 25 -36 47
7 11 13 12 23 4 42 -34 129 -16 99 21 -7 9 -31 21 -53 28 -68 20 -87 70 -43
113 26 27 63 32 112 14z m537 1 c31 -11 52 -44 61 -92 l7 -38 -96 0 c-53 0
-96 -3 -96 -6 0 -17 23 -43 48 -53 24 -10 36 -9 67 4 31 12 40 13 47 3 11 -18
-24 -45 -71 -53 -49 -8 -94 13 -121 58 -61 100 43 220 154 177z"/>
<path d="M1210 296 l0 -66 53 0 c64 0 97 20 97 59 0 48 -21 64 -89 69 l-61 4
0 -66z"/>
<path d="M466 269 c-14 -11 -26 -25 -26 -30 0 -5 32 -9 70 -9 74 0 83 7 50 40
-26 26 -60 25 -94 -1z"/>
<path d="M927 183 c-14 -13 -6 -43 13 -53 26 -14 67 -3 85 23 8 12 15 25 15
29 0 10 -104 11 -113 1z"/>
<path d="M1651 176 c-14 -17 -5 -44 19 -51 30 -9 90 21 90 44 0 18 -6 21 -49
21 -29 0 -53 -6 -60 -14z"/>
<path d="M2436 269 c-14 -11 -26 -25 -26 -30 0 -5 32 -9 70 -9 74 0 83 7 50
40 -26 26 -60 25 -94 -1z"/>
</g>
</svg>
